<svg xmlns="http://www.w3.org/2000/svg" xmlns:xlink="http://www.w3.org/1999/xlink" display="none">
	<symbol viewBox="-5 -7 36 32" id="github">
		<path d="M25.047 17.422C22.984 21.594 17.313 22 13.25 22 9.125 22 3.109 21.641.969 17.422.172 15.844 0 13.984 0 12.25c0-2.281.625-4.438 2.125-6.188a8.585 8.585 0 0 1-.422-2.656c0-1.172.266-2.343.797-3.406 2.469 0 4.047 1.078 5.922 2.547A20.895 20.895 0 0 1 13.25 2c1.469 0 2.953.156 4.375.5C19.484 1.047 21.063 0 23.5 0a7.629 7.629 0 0 1 .797 3.406c0 .891-.141 1.781-.422 2.625C25.375 7.797 26 9.969 26 12.25c0 1.734-.172 3.578-.953 5.172zM18.5 10.5c-1.031 0-2.016.188-3.047.328-.812.125-1.625.172-2.453.172s-1.641-.047-2.453-.172c-1.016-.14-2.016-.328-3.047-.328-2.547 0-4 2.109-4 4.5 0 4.781 4.375 5.516 8.188 5.516h2.625c3.813 0 8.188-.734 8.188-5.516-.001-2.391-1.454-4.5-4.001-4.5zM8 18c-1.406 0-2-1.859-2-3s.594-3 2-3 2 1.859 2 3-.594 3-2 3zm10 0c-1.406 0-2-1.859-2-3s.594-3 2-3 2 1.859 2 3-.594 3-2 3z"/>
	</symbol>
	<symbol viewBox="0 -8 105.139 155.19" id="fb" >
			<path  d="M89.584,155.139V84.378h23.742l3.562-27.585H89.584V39.184
		c0-7.984,2.208-13.425,13.67-13.425l14.595-0.006V1.08C115.325,0.752,106.661,0,96.577,0C75.52,0,61.104,12.853,61.104,36.452
		v20.341H37.29v27.585h23.814v70.761H89.584z"/>
	</symbol>
	<symbol viewBox="-5 -5 34 32.94" id="in">
		<path d="M2.875 5.344h-.031C1.109 5.344 0 4.156 0 2.672 0 1.156 1.156 0 2.906 0c1.766 0 2.859 1.156 2.875 2.672.016 1.484-1.109 2.672-2.906 2.672zm2.578 17.594H.297V7.453h5.156v15.485zm18.547 0h-5.141v-8.281c0-2.078-.75-3.5-2.609-3.5-1.422 0-2.266.953-2.641 1.875-.125.344-.172.797-.172 1.266v8.641h-5.14c.063-14.031 0-15.484 0-15.484h5.141v2.25h-.031c.672-1.063 1.891-2.609 4.672-2.609 3.391 0 5.922 2.219 5.922 6.969v8.873z"/>
	</symbol>
	<symbol viewBox="0 0 25.18 16.164" id="arrow_down">
	<path d="M13.293,15.871c-0.391,0.391-1.016,0.391-1.406,0L0.293,4.293c-0.391-0.391-0.391-1.031,0-1.422
		l2.594-2.578c0.391-0.391,1.016-0.391,1.406,0L12.59,8.59l8.297-8.297c0.391-0.391,1.016-0.391,1.406,0l2.594,2.578
		c0.391,0.391,0.391,1.031,0,1.422L13.293,15.871z"/></symbol>
	<symbol viewBox="0 -32 512.016 512" id="user">
		<path d="m192 213.339844c-58.816406 0-106.667969-47.847656-106.667969-106.664063 0-58.816406 47.851563-106.6679685 106.667969-106.6679685s106.667969 47.8515625 106.667969 106.6679685c0 58.816407-47.851563 106.664063-106.667969 106.664063zm0-181.332032c-41.171875 0-74.667969 33.492188-74.667969 74.667969 0 41.171875 33.496094 74.664063 74.667969 74.664063s74.667969-33.492188 74.667969-74.664063c0-41.175781-33.496094-74.667969-74.667969-74.667969zm0 0"/><path d="m368 448.007812h-352c-8.832031 0-16-7.167968-16-16v-74.667968c0-55.871094 45.460938-101.332032 101.332031-101.332032h181.335938c55.871093 0 101.332031 45.460938 101.332031 101.332032v74.667968c0 8.832032-7.167969 16-16 16zm-336-32h320v-58.667968c0-38.226563-31.105469-69.332032-69.332031-69.332032h-181.335938c-38.226562 0-69.332031 31.105469-69.332031 69.332032zm0 0"/><path d="m496 218.675781h-181.332031c-8.832031 0-16-7.167969-16-16s7.167969-16 16-16h181.332031c8.832031 0 16 7.167969 16 16s-7.167969 16-16 16zm0 0"/><path d="m410.667969 304.007812c-4.097657 0-8.191407-1.558593-11.308594-4.691406-6.25-6.253906-6.25-16.386718 0-22.636718l74.027344-74.027344-74.027344-74.027344c-6.25-6.25-6.25-16.382812 0-22.632812s16.382813-6.25 22.636719 0l85.332031 85.332031c6.25 6.25 6.25 16.386719 0 22.636719l-85.332031 85.332031c-3.136719 3.15625-7.234375 4.714843-11.328125 4.714843zm0 0"/>
	</symbol>
</svg>